<?xml version="1.0" encoding="utf-8"?>
<!-- Generator: Adobe Illustrator 24.2.0, SVG Export Plug-In . SVG Version: 6.00 Build 0)  -->
<svg version="1.1" id="Layer_1" xmlns="http://www.w3.org/2000/svg" xmlns:xlink="http://www.w3.org/1999/xlink" x="0px" y="0px"
	 viewBox="0 0 1280 216" enable-background="new 0 0 1280 216" xml:space="preserve">
<g>
	<path fill="#005DB2" d="M-825.61-45.67c8.27,0.01,16.55-0.02,24.82,0.02c-0.03,22.67,0.01,45.35-0.02,68.02
		c14.24-5.65,29.68-7.37,44.89-7.69c17.95-0.31,36.31,0.76,53.34,6.89c10.85,3.94,21.37,10.81,26.61,21.43
		c3.76,7.97,5.19,16.81,6.12,25.5c1.11,12.86,0.98,25.89-0.99,38.66c-1.47,8.67-3.57,17.72-9.45,24.55
		c-8.67,10.34-21.87,15.41-34.7,18.27c-17.75,3.75-36.08,4-54.11,2.61c-10.83-0.94-21.62-3.01-31.75-7
		c0.04,2.04,0.06,4.09,0.09,6.14c-8.28,0.14-16.57,0.04-24.85,0.07C-825.6,85.98-825.6,20.15-825.61-45.67z M-774.47,40.86
		c-5.22,0.74-10.61,1.72-15.18,4.52c-4.25,2.55-7.12,6.93-8.49,11.62c-3.31,11.38-2.64,23.35-2.64,35.06
		c0.19,6.07,0.85,12.16,2.39,18.05c1.31,5.02,4.23,9.83,8.79,12.5c5.27,3.11,11.46,4.11,17.44,4.88
		c14.33,1.46,28.78,1.28,43.12,0.15c6.16-0.62,12.45-1.21,18.23-3.57c4.66-1.92,8.47-5.74,10.33-10.44
		c2.07-5.27,2.74-10.96,3.32-16.55c0.93-10.73,0.81-21.59-0.75-32.26c-0.92-5.61-2.03-11.61-5.96-15.98
		c-4.01-4.64-10.18-6.51-16.05-7.35C-737.99,39.13-756.36,38.76-774.47,40.86z"/>
</g>
<g>
	<path fill="#005DB2" d="M-947.45,15.78c18.47-1.87,37.28-1.73,55.57,1.7c12.45,2.52,25.15,6.94,34.35,16.05
		c5.38,5.24,8.59,12.27,10.44,19.46c3.1,11.72,3.61,23.95,3.36,36.01c-0.39,11.55-1.63,23.31-6.04,34.09
		c-4.36,10.47-13.92,17.78-24.15,22.03c-15.79,6.56-33.13,8.04-50.05,8.23c-17.41-0.02-35.22-1.35-51.56-7.8
		c-10.7-4.24-20.87-11.68-25.33-22.64c-5.05-12.65-5.73-26.51-5.77-39.98c0.16-13.02,0.97-26.43,6.15-38.55
		c3.74-8.66,11.17-15.21,19.46-19.43C-970.61,19.61-958.99,17.14-947.45,15.78z M-950.38,40.77c-7.24,0.84-15.24,1.78-20.68,7.16
		c-4.87,4.69-6.03,11.68-6.98,18.07c-1.54,11.74-1.54,23.69-0.09,35.43c0.93,6.12,1.87,12.73,6.09,17.56
		c3.7,4.38,9.39,6.31,14.87,7.3c9.62,1.71,19.44,1.99,29.2,2.23c12.65-0.09,25.48-0.16,37.89-2.94c6.94-1.48,13.26-6.35,15.35-13.29
		c3.23-10.77,3.51-22.18,3.3-33.34c-0.45-8.54-0.93-17.34-4.13-25.36c-3.01-7.15-10.59-10.94-17.93-11.92
		C-912.31,38.94-931.47,38.94-950.38,40.77z"/>
</g>
<path fill="#005DB2" d="M-1254.03,18.03c9.86-1.98,19.99-2.07,30.01-2.13c14.04,0.11,28.18,0.47,42.01,3.11
	c10.04,1.79,19.02,7.78,25.16,15.83c3.8-5.45,8.81-10.16,14.95-12.82c11.02-4.63,23.13-5.53,34.95-5.97
	c12.27-0.3,24.58-0.23,36.8,1.1c10.86,1.32,22.15,4.06,30.69,11.3c7.44,6.03,11.9,15.12,13.4,24.47c1.42,8.94,1.26,18.03,1.38,27.06
	c0.04,23.85,0,47.7,0.02,71.55c-8.28,0.01-16.56,0-24.84,0.01c0-27.51,0.03-55.02-0.01-82.53c0.15-8.45-4.47-16.53-11.53-21.07
	c-11.39-7.55-25.6-8.55-38.89-8.32c-12.78-0.21-26.39,0.9-37.37,8.07c-7.18,4.54-11.86,12.76-11.69,21.31
	c-0.05,27.51,0.02,55.03-0.03,82.54c-8.27-0.02-16.54,0-24.81,0c-0.01-27.17-0.01-54.34,0-81.51c0.68-11.14-7.08-21.1-17.1-25.19
	c-10.34-4.7-21.91-5.41-33.11-5.22c-10.89-0.19-22.12,0.61-32.18,5.13c-6.53,2.92-12.51,7.82-15.24,14.59
	c-1.72,3.99-1.97,8.4-1.91,12.7c0.04,26.5,0,53,0.01,79.5c-8.23-0.12-16.48,0.22-24.71-0.16c-0.23-42.97-0.02-85.95-0.1-128.93
	c8.27-0.04,16.54,0,24.82-0.02c-0.01,2.13-0.01,4.27-0.02,6.4C-1267.77,23.99-1261.46,19.43-1254.03,18.03z"/>
<path fill="#005DB2" d="M-651.65,151.54c0-45.31,0-90.61,0-135.91c8.37,0.01,16.74-0.01,25.12,0.01
	c-0.01,7.91,0.02,15.82-0.02,23.74c-0.04,37.38-0.02,74.76-0.01,112.14C-634.93,151.55-643.29,151.52-651.65,151.54z"/>
<path fill="#005DB2" d="M-1228.84,187.49c2.11,0.03,4.22,0.05,6.33,0.09c-2.2,2.26-4.43,4.48-6.66,6.71c-1.66,0-3.32,0-4.97,0.01
	C-1232.4,192.01-1230.64,189.73-1228.84,187.49z"/>
<path fill="#005DB2" d="M-1080.07,187.55c2.14-0.01,4.29-0.01,6.44,0c-2.15,2.2-4.17,4.56-6.6,6.47c-1.67,0.29-3.36,0.42-5.07,0.39
	C-1083.58,192.1-1081.82,189.83-1080.07,187.55z"/>
<path fill="#005DB2" d="M-296.34,187.56c2.2-0.03,4.43-0.04,6.66-0.06c1.7,2.24,3.37,4.5,5.04,6.78c-1.55,0.01-3.08,0.03-4.61,0.05
	C-291.64,192.1-294,189.83-296.34,187.56z"/>
<path fill="#005DB2" d="M-940.06,191.73c2.2-0.57,4.54-0.29,6.81-0.41c-2.22,2.34-4.68,4.42-7.02,6.63
	c-1.58,0.01-3.16,0.01-4.74,0.02C-943.4,195.86-941.92,193.64-940.06,191.73z"/>
<path fill="#005DB2" d="M-1249.83,199c1.91-2.17,3.81-4.34,5.72-6.5c2.1,0,4.19-0.01,6.28-0.01c2.01,2.18,4.02,4.35,6.02,6.52
	c-1.94-0.01-3.89-0.03-5.84-0.05c-1.1-1.21-2.21-2.42-3.31-3.63c-1.12,1.22-2.24,2.44-3.35,3.66
	C-1246.15,198.99-1247.99,198.99-1249.83,199z"/>
<path fill="#005DB2" d="M-1101.22,199.01c2.01-2.18,4.01-4.35,6.03-6.52c2.01,0,4.01,0.01,6.02,0.01c2.08,2.17,4.17,4.34,6.26,6.5
	c-1.93,0-3.86-0.01-5.78-0.01c-1.13-1.22-2.25-2.44-3.38-3.66c-1.11,1.21-2.22,2.42-3.33,3.64
	C-1097.34,198.99-1099.28,199-1101.22,199.01z"/>
<path fill="#005DB2" d="M-470.87,198.99c1.99-2.16,3.98-4.32,5.98-6.48c2.07-0.01,4.14-0.02,6.22-0.05
	c2.06,2.17,4.09,4.37,6.11,6.59c-1.87-0.03-3.73,0.02-5.57-0.17c-1.39-0.98-2.49-2.3-3.68-3.47c-1.12,1.2-2.21,2.4-3.31,3.6
	C-467.04,199-468.97,198.99-470.87,198.99z"/>
<path fill="#005DB2" d="M-306.07,199.06c1.99-2.2,4.01-4.38,6.03-6.56c2-0.01,4.01,0,6.04,0c1.99,2.17,4,4.34,6.01,6.51
	c-1.88-0.01-3.75-0.03-5.61-0.05c-1.16-1.19-2.32-2.38-3.46-3.56c-1.27,1.16-2.32,2.64-3.82,3.48
	C-302.62,199.06-304.36,199.02-306.07,199.06z"/>
<path fill="#005DB2" d="M-139.69,192.59c3.57-0.04,4.99,4.43,8.67,3.82c3.26,0.16,4.49-3.99,7.89-3.8
	c-0.83,2.03-1.31,4.54-3.38,5.69c-3.02,1.63-6.95,1.66-9.97,0.04C-138.62,197.23-138.99,194.64-139.69,192.59z"/>
<g>
	<path fill="#005DB2" d="M-577.94,197.97c1.37-0.01,2.75-0.01,4.14,0c-0.02,1.64-0.01,3.29-0.01,4.94
		c-1.18,1.35-2.35,2.71-3.52,4.07c3.75,6.57,4.61,14.75,2.17,21.92c-1.59,4.7-5.96,8.07-10.78,8.93
		c-7.68,1.45-17.55,0.48-21.93-6.91c-2.88-5.14-2.92-11.39-1.89-17.05c0.84-4.79,4.08-9.22,8.76-10.83
		c7.45-2.55,16.01-1.76,22.68,2.51C-577.99,203.03-577.96,200.49-577.94,197.97z M-596.68,208.52c-4.42,1.89-5.19,7.25-5.05,11.49
		c0.09,3.98,0.66,9,4.58,11.1c4.51,2.07,11.32,1.3,13.44-3.8c1.87-4.82,1.73-10.42-0.17-15.21
		C-585.99,207.38-592.39,206.71-596.68,208.52z"/>
</g>
<path fill="#005DB2" d="M-1298.16,201.86c2.61,0,5.22,0.01,7.83,0.02c-0.02,5.84,0.04,11.68-0.04,17.51c0.38-0.2,1.12-0.62,1.5-0.83
	c3.86-5.88,8.66-11.08,12.9-16.69c3.39-0.01,6.78-0.01,10.16,0.01c-5.09,5.92-10.21,11.81-15.36,17.68
	c4.8,6.24,9.75,12.36,14.59,18.57c-3.4,0-6.79,0-10.19,0c-4.13-5.99-8.74-11.67-12.54-17.88c-2.16,5.63-0.52,11.96-1.02,17.88
	c-2.61,0-5.22,0-7.83,0C-1298.16,226.04-1298.17,213.95-1298.16,201.86z"/>
<path fill="#005DB2" d="M-1246.61,202.55c6.15-1.29,12.48-0.46,18.71-0.68c0,2.17,0,4.35,0,6.53c-5.38,0.23-10.88-0.58-16.18,0.54
	c-3.43,0.96-4.02,4.78-4.63,7.75c6.93,0.09,13.87,0.02,20.81,0.04c0,2.18,0,4.36,0,6.54c-6.96,0.03-13.92-0.08-20.88,0.06
	c0.74,2.9,1.59,6.52,4.9,7.44c5.18,1.47,10.67,0.61,15.98,0.83c0,2.17,0,4.35,0,6.53c-7.14-0.24-14.64,0.88-21.44-1.83
	c-6.36-3.02-8.32-10.84-8.07-17.32C-1257.49,212.09-1253.73,204.36-1246.61,202.55z"/>
<path fill="#005DB2" d="M-1214.58,201.87c10.62,0,21.24,0,31.86,0c0.01,2.17,0.01,4.35,0.01,6.53c-4.09,0-8.17,0.01-12.25-0.02
	c-0.06,9.92-0.01,19.83-0.03,29.75c-2.61,0-5.22,0-7.83,0c0.01-9.9-0.01-19.81,0.01-29.71c-3.92-0.03-7.85-0.02-11.77-0.02
	C-1214.58,206.22-1214.58,204.04-1214.58,201.87z"/>
<path fill="#005DB2" d="M-1153.71,201.88c3.3-0.01,6.6-0.01,9.91-0.02c4.97,8.83,9.72,17.78,14.82,26.54
	c0.17-8.85,0.03-17.69,0.08-26.53c2.43,0,4.87-0.01,7.3,0c0.01,12.08,0.01,24.17,0,36.26c-3.21,0-6.42,0-9.63,0
	c-5.07-8.81-10.01-17.7-15.15-26.48c-0.05,8.83,0,17.66-0.02,26.49c-2.44-0.01-4.88-0.01-7.31-0.01
	C-1153.71,226.04-1153.71,213.96-1153.71,201.88z"/>
<g>
	<path fill="#005DB2" d="M-1099.61,202.54c5.64-1.37,11.85-1.35,17.28,0.88c4.59,1.9,7.21,6.69,7.86,11.44
		c0.77,5.73,0.76,12.08-2.44,17.13c-2.61,4.1-7.54,5.97-12.21,6.29c-5.97,0.46-12.81-0.4-17.07-5.06c-4.36-4.93-4.66-12.1-3.76-18.3
		C-1109.31,209.22-1105.32,203.91-1099.61,202.54z M-1096.63,208.41c-4.36,1.51-5.07,6.62-5.09,10.6c-0.13,4.32,0.31,9.79,4.59,12.1
		c3.34,1.48,7.62,1.53,10.7-0.61c2.91-2.19,3.58-6.09,3.74-9.51c0.02-3.44-0.05-7.23-2.11-10.15
		C-1087.5,207.29-1092.72,206.96-1096.63,208.41z"/>
</g>
<path fill="#005DB2" d="M-1063.86,201.87c2.62,0,5.23-0.01,7.85,0c0,12.09,0.01,24.17,0,36.26c-2.62,0-5.23,0-7.85,0
	C-1063.86,226.04-1063.86,213.95-1063.86,201.87z"/>
<path fill="#005DB2" d="M-1024.7,213.06c1.06-5.63,5.92-10.09,11.6-10.76c7.08-0.87,14.23-0.25,21.34-0.43c0,2.17,0,4.35,0.01,6.53
	c-5.4,0.04-10.81-0.09-16.2,0.03c-2.48,0.1-5.32,0.59-6.8,2.82c-2.41,3.42-2.23,7.89-1.89,11.87c0.31,2.83,1.15,6.21,4.01,7.47
	c4.15,1.59,8.7,0.86,13.04,1.01c0-2.86,0-5.71,0-8.57c-3.49,0-6.97,0-10.45,0c-0.01-2.17-0.02-4.35-0.01-6.52
	c6.1-0.02,12.2-0.02,18.3-0.01c-0.01,7.21,0,14.42-0.01,21.63c-6.07-0.06-12.15,0.12-18.23-0.07c-4.62-0.16-9.78-1.53-12.38-5.69
	C-1026.03,226.72-1025.95,219.45-1024.7,213.06z"/>
<path fill="#005DB2" d="M-979.48,201.87c2.61-0.01,5.22,0,7.83,0c0,12.09,0,24.17,0,36.26c-2.61,0-5.22,0-7.83,0
	C-979.48,226.04-979.48,213.96-979.48,201.87z"/>
<g>
	<path fill="#005DB2" d="M-946.82,201.87c2.95,0,5.91-0.01,8.87,0c5.13,12.08,10.28,24.17,15.41,36.26c-3.05,0-6.11,0-9.15,0
		c-1.21-2.86-2.42-5.71-3.6-8.57c-4.71-0.05-9.42-0.02-14.13-0.03c-1.15,2.86-2.29,5.73-3.42,8.6c-3.13,0-6.26,0-9.39,0
		C-957.1,226.04-951.95,213.96-946.82,201.87z M-942.43,210.58c-1.73,4.22-3.45,8.45-5.18,12.68c3.48,0.01,6.96,0.01,10.45,0.01
		C-938.89,219.03-940.6,214.77-942.43,210.58z"/>
</g>
<path fill="#005DB2" d="M-897.19,201.87c10.62,0,21.24,0,31.87,0c-0.01,2.17-0.01,4.35,0,6.53c-4.01,0-8.01,0-12.01,0
	c0.01,9.91-0.01,19.81,0.01,29.72c-2.71,0.01-5.41,0.01-8.11,0.02c0-9.92,0-19.83,0-29.74c-3.92,0-7.84,0-11.76,0
	C-897.19,206.22-897.19,204.04-897.19,201.87z"/>
<g>
	<path fill="#005DB2" d="M-855.66,238.12c0.02-12.09-0.03-24.17,0.03-36.26c7.21,0.09,14.44-0.16,21.66,0.14
		c3.83,0.09,8.03,1.35,10.16,4.79c3.09,5.49,0.85,13.26-5.15,15.68c1.91,1.17,4.08,2.34,4.96,4.55c1.45,3.51,1.25,7.43,1.93,11.12
		c-2.86-0.01-5.75,0.17-8.58-0.27c-1.05-4.04-0.3-9.36-4.06-12.13c-3.99-2.18-8.77-1.22-13.11-1.45c-0.01,4.61,0,9.23,0,13.85
		C-850.44,238.13-853.05,238.13-855.66,238.12z M-847.82,208.4c0,3.13-0.01,6.26-0.01,9.39c4.5-0.11,9.03,0.34,13.5-0.28
		c4.38-0.68,4.43-8.47-0.1-8.94C-838.88,208.15-843.36,208.5-847.82,208.4z"/>
</g>
<path fill="#005DB2" d="M-810.47,201.87c2.61-0.01,5.22,0,7.83,0c0,12.08,0,24.17,0,36.26c-2.61,0-5.22,0-7.83,0
	C-810.47,226.04-810.47,213.96-810.47,201.87z"/>
<path fill="#005DB2" d="M-693.43,201.87c2.6,0,5.21,0,7.83,0c0,12.08,0,24.17,0,36.26c-2.62,0-5.22,0-7.83,0
	C-693.43,226.04-693.43,213.96-693.43,201.87z"/>
<path fill="#005DB2" d="M-685.33,219.62c4.7-5.92,9.4-11.85,14.12-17.76c3.45,0,6.9,0,10.36,0.03
	c-5.07,5.92-10.19,11.81-15.34,17.66c4.8,6.25,9.76,12.37,14.61,18.58c-3.48,0-6.96,0-10.43,0
	C-676.44,231.95-680.88,225.79-685.33,219.62z"/>
<path fill="#005DB2" d="M-651.38,201.87c2.61,0,5.22-0.01,7.83,0c0,4.95,0,9.91,0,14.86c4.79,0,9.58,0,14.37,0.01
	c0-4.96,0-9.92,0-14.88c2.61,0,5.23,0.01,7.86,0.02c-0.01,12.08-0.01,24.16,0,36.24c-2.63,0.01-5.25,0.01-7.86,0.02
	c0-5.04-0.01-10.07,0-15.1c-4.79-0.01-9.58-0.01-14.37,0c0.01,5.03,0,10.06,0,15.09c-2.61,0-5.22,0-7.83,0
	C-651.38,226.04-651.38,213.96-651.38,201.87z"/>
<path fill="#005DB2" d="M-563.62,201.88c2.61-0.01,5.23-0.02,7.86-0.02c0,12.09,0,24.18,0,36.28c-2.63-0.01-5.24-0.01-7.86-0.02
	C-563.61,226.04-563.61,213.96-563.62,201.88z"/>
<g>
	<path fill="#005DB2" d="M-523.38,201.87c8.59,0.45,17.56-1.23,25.84,1.65c6.99,2.56,8.53,10.99,8.36,17.55
		c-0.13,6.38-2.39,14.27-9.32,16.17c-8.17,1.66-16.6,0.59-24.88,0.89C-523.38,226.04-523.38,213.96-523.38,201.87z M-515.55,208.4
		c0,7.73,0.01,15.46,0,23.2c4.16-0.15,8.44,0.49,12.51-0.63c4.08-1.35,5.12-6.22,5.25-10c0.09-4.13-0.29-9.51-4.47-11.63
		C-506.5,207.76-511.14,208.59-515.55,208.4z"/>
</g>
<g>
	<path fill="#005DB2" d="M-481.59,238.13c5.05-12.09,10.09-24.19,15.18-36.27c3.04,0,6.08,0.01,9.13,0.02
		c5.03,12.09,10.11,24.16,15.15,36.25c-3.05,0-6.09,0-9.13,0.01c-1.15-2.87-2.29-5.74-3.43-8.61c-4.71,0.01-9.42,0-14.12,0.01
		c-1.21,2.86-2.42,5.71-3.61,8.57C-475.48,238.13-478.54,238.13-481.59,238.13z M-466.95,223.27c3.47,0,6.95,0,10.43-0.01
		c-1.72-4.21-3.43-8.42-5.16-12.62C-463.55,214.8-465.23,219.04-466.95,223.27z"/>
</g>
<path fill="#005DB2" d="M-436.12,201.87c3.11,0,6.24,0,9.38-0.01c2.79,4.68,5.59,9.38,8.35,14.09c3.03-4.68,5.92-9.45,8.99-14.11
	c3.1,0.03,6.2,0.03,9.32,0.04c-4.6,6.8-9.55,13.37-13.98,20.27c-0.9,5.21-0.14,10.66-0.37,15.96c-2.71,0.02-5.41,0.02-8.11,0.03
	c-0.05-4.73,0.08-9.46-0.01-14.18c0.16-1.76-0.99-3.18-1.85-4.58C-428.34,213.57-432.24,207.73-436.12,201.87z"/>
<path fill="#005DB2" d="M-374.75,201.87c10.62-0.01,21.24,0,31.87,0c-0.01,2.17-0.01,4.35,0,6.53c-4.09,0-8.18,0-12.26-0.01
	c-0.05,9.91-0.01,19.83-0.02,29.74c-2.62,0-5.23,0-7.83,0c0-9.91-0.01-19.82,0-29.73c-3.92,0-7.84,0-11.75,0
	C-374.75,206.22-374.76,204.05-374.75,201.87z"/>
<path fill="#005DB2" d="M-333.46,201.86c2.69,0,5.4,0.01,8.1,0.02c-0.01,12.08-0.01,24.16,0,36.24c-2.7,0.01-5.41,0.01-8.1,0.02
	C-333.47,226.04-333.46,213.95-333.46,201.86z"/>
<path fill="#005DB2" d="M-303.25,202.69c6.26-1.51,12.77-0.57,19.15-0.82c-0.01,2.17-0.01,4.35,0,6.53
	c-5.32,0.22-10.74-0.55-15.97,0.52c-3.6,0.8-4.24,4.73-4.86,7.76c6.94,0.12,13.88,0.03,20.83,0.06c-0.01,2.17-0.01,4.35,0,6.52
	c-6.97,0.04-13.93-0.08-20.89,0.09c0.78,2.69,1.39,6.08,4.36,7.21c5.3,1.81,11.04,0.77,16.54,1.04c-0.02,2.18-0.02,4.35-0.02,6.53
	c-6.99-0.24-14.33,0.87-21.01-1.7c-6.37-2.59-8.54-10.19-8.48-16.48C-313.9,212.93-310.49,204.81-303.25,202.69z"/>
<path fill="#005DB2" d="M-267.38,201.88c3.79,0.04,7.6-0.22,11.38,0.15c3.42,9.16,5.96,18.63,9.29,27.83
	c3.26-9.31,6.42-18.66,9.63-27.99c3.82,0,7.65-0.01,11.48,0c0,12.09,0.01,24.18,0,36.27c-2.44-0.01-4.88-0.01-7.31-0.01
	c-0.04-8.97,0.11-17.94-0.08-26.91c-3.52,8.85-6.31,17.98-9.94,26.78c-2.67,0.26-5.34,0.13-7.99,0.14
	c-2.96-9.03-5.79-18.1-8.84-27.1c-0.08,9.03-0.01,18.06-0.04,27.09c-2.53,0-5.06,0-7.58,0
	C-267.38,226.05-267.38,213.96-267.38,201.88z"/>
<path fill="#005DB2" d="M-192.94,201.87c3.31,0,6.62,0,9.93,0c4.89,8.92,9.7,17.88,14.62,26.79c0.03-8.93,0-17.86,0.01-26.79
	c2.52-0.01,5.04,0,7.58,0c0,12.09,0,24.18,0,36.27c-3.25,0-6.5-0.01-9.74-0.06c-4.96-8.87-10.01-17.69-15.06-26.51
	c-0.02,8.86,0,17.71-0.01,26.56c-2.45,0-4.89,0-7.33,0C-192.94,226.04-192.94,213.96-192.94,201.87z"/>
<g>
	<path fill="#005DB2" d="M-151.4,238.12c5.13-12.09,10.28-24.17,15.41-36.26c2.96,0.01,5.92,0,8.9,0.01
		c5.12,12.09,10.28,24.17,15.4,36.26c-3.06,0-6.1,0-9.14,0c-1.22-2.88-2.45-5.75-3.7-8.62c-4.71,0.04-9.42,0.01-14.12,0.04
		c-1.11,2.83-2.02,5.75-3.45,8.43C-145.2,238.29-148.31,238.11-151.4,238.12z M-131.57,210.55c-1.74,4.23-3.47,8.47-5.19,12.71
		c3.47,0.01,6.94,0.01,10.42,0C-128.07,219.02-129.78,214.77-131.57,210.55z"/>
</g>
<path fill="#005DB2" d="M-102.02,201.87c3.3,0,6.6,0,9.91,0c4.89,8.9,9.68,17.87,14.63,26.74c0.04-8.91,0-17.83,0.02-26.74
	c2.51-0.01,5.04,0,7.58,0c0,12.08,0,24.17,0,36.25c-3.23-0.16-6.66,0.49-9.75-0.39c-5.28-8.55-9.94-17.49-15.07-26.13
	c-0.03,8.84-0.01,17.69-0.01,26.53c-2.45,0-4.88,0-7.31,0C-102.02,226.04-102.02,213.96-102.02,201.87z"/>
<path fill="#005DB2" d="M-58.35,214.11c0.9-5.41,4.82-10.45,10.39-11.53c7.48-1.37,15.16-0.44,22.74-0.71
	c-0.01,2.17-0.01,4.35,0,6.53c-6.1,0.15-12.22-0.34-18.29,0.25c-4.18,0.39-6.59,4.55-6.67,8.42c-0.25,4.38-0.27,9.69,3.25,12.88
	c4.1,2.59,9.25,1.37,13.85,1.66c-0.01-2.86,0-5.72,0.01-8.58c-3.4,0-6.79,0-10.17,0c-0.01-2.18-0.02-4.35,0-6.53
	c6,0,12.01,0,18.02,0c0,7.21,0,14.42,0,21.63c-5.93-0.05-11.86,0.1-17.78-0.05c-4.21-0.11-8.83-1.08-11.65-4.48
	C-59.24,228.32-59.49,220.68-58.35,214.11z"/>
<ellipse fill="#005DB2" cx="-748.035" cy="223.935" rx="9.24" ry="4.618"/>
<path fill="#005DB2" d="M-809.15,241.27c1.81,0,3.64-0.01,5.47,0c-0.01,1.73-0.01,3.46,0,5.2c-1.83-0.01-3.65-0.01-5.47-0.01
	C-809.16,244.73-809.16,243-809.15,241.27z"/>
<path fill="#005DB2" d="M-464.6,241.26c1.91,0,3.83,0.01,5.75,0.01c-0.01,1.73-0.01,3.46-0.01,5.19c-1.92,0-3.83,0-5.73,0.01
	C-464.6,244.73-464.6,243-464.6,241.26z"/>
<path fill="#FF2E17" d="M-572.03-41.92c19.17-4.53,39.01-3.68,58.56-3.74c-7.47,7.23-14.97,14.43-22.44,21.65
	c-11.31,0.51-24.59-1.01-33.49,7.51c-8.11,8.54-6.58,21.3-6.75,32.12c19.33,0.03,38.65,0,57.98,0.02
	c-7.82,7.94-15.67,15.86-23.53,23.77c-11.74-0.02-23.49,0-35.23-0.02c0.08,37.38,0.18,74.76,0.27,112.14
	c-8.36,0.01-16.72,0-25.08,0.01c0-37.38,0-74.76,0-112.14c-8.27-0.02-16.54,0.03-24.81-0.02c0.04-7.92,0.01-15.83,0.02-23.74
	c8.26-0.02,16.52,0,24.79-0.02c0.21-8.58,0.38-17.19,1.21-25.74c0.5-5.18,1.7-10.41,4.39-14.91
	C-590.83-33.66-581.82-39.6-572.03-41.92z"/>
<path fill="#FF2E17" d="M-651.65-26.6c8.36,0,16.72-0.01,25.08,0.01c0,8.41,0,16.83,0,25.25c-8.36,0.01-16.72,0-25.08,0.01
	C-651.65-9.76-651.65-18.18-651.65-26.6z"/>
<g>
	<path fill="#FF2E17" d="M-475.46,15.82c19.79-2,40.03-1.85,59.52,2.45c12.42,2.92,25.12,8.09,33.37,18.25
		c5.99,7.44,8.29,17.04,9.79,26.28c1.92,13.92,1.91,28.12,0.05,42.05c-1.65,10.94-4.66,22.56-13.15,30.28
		c-12.2,11.32-29.21,15.21-45.28,17.11c-20.1,1.91-40.67,1.72-60.4-2.98c-12.08-3.05-24.36-8.33-32.27-18.33
		c-5.68-7.05-7.57-16.18-9-24.9c-1.99-13.95-2.02-28.19-0.28-42.17c1.52-10.92,4.24-22.58,12.58-30.44
		C-508.51,21.89-491.51,17.83-475.46,15.82z M-478.4,40.81c-7,0.81-14.66,1.76-20.03,6.8c-5.1,4.67-6.36,11.82-7.32,18.34
		c-1.57,11.97-1.57,24.16,0,36.13c0.94,6.29,2.13,13.13,6.83,17.81c5.25,5.29,13.02,6.39,20.07,7.3
		c16.26,1.71,32.69,1.74,48.97,0.32c7.09-0.79,14.63-1.52,20.66-5.69c4.91-3.32,7.14-9.21,8.27-14.8
		c2.02-10.54,2.15-21.35,1.66-32.04c-0.55-7.46-1.06-15.19-4.26-22.07c-2.58-5.74-8.43-9.22-14.38-10.57
		c-7.9-1.81-16.05-2.13-24.11-2.57C-454.16,39.05-466.32,39.7-478.4,40.81z"/>
</g>
<g>
	<path fill="#FF2E17" d="M-158.75,23.21c15.65-6.74,32.95-8.34,49.82-8.59c17.98-0.05,36.45,1.25,53.26,8.13
		c10.9,4.44,21.09,12.41,25.16,23.8c5.2,14.98,5.65,31.12,5.06,46.82c-44.95,0.53-89.91,0.14-134.86,0.26
		c0.82,8.77,1.18,18.55,7.07,25.64c6.42,6.81,16.42,7.45,25.16,8.39c15.35,1.23,30.82,1.18,46.15-0.33
		c5.3-0.65,10.74-1.3,15.66-3.55c2.65-1.19,4.62-3.39,7.02-4.98c9.89-0.25,19.8-0.04,29.7-0.08c-2.92,10.88-11.48,19.38-21.37,24.3
		c-15.14,7.62-32.35,9.63-49.08,10.23c-16.5,0.39-33.26-0.43-49.2-5.03c-12.32-3.59-24.82-10.17-31.26-21.77
		c-5.63-10.89-7.02-23.41-7.63-35.49c-0.43-15.15,0.13-30.78,5.65-45.08C-178.41,35.22-168.98,27.61-158.75,23.21z M-151.17,46.76
		c-6.96,5.59-7.71,15.2-8.85,23.4c35.53,0,71.07,0,106.61,0c-1.11-6.85-1.36-14.39-5.62-20.19c-4.11-5.65-11.2-7.76-17.82-8.61
		c-15.64-1.99-31.49-2.38-47.21-1.23C-133.27,41-143.46,40.93-151.17,46.76z"/>
</g>
<path fill="#FF2E17" d="M-328.24,28.84c9.44-9.03,23-10.88,35.44-12.07c15.92-1,31.99-0.92,47.82,1.21
	c13.08,1.79,26.57,7.61,33.76,19.21c6.92,10.56,6.8,23.67,7.23,35.81c0.2,26.27,0.04,52.54,0.09,78.8c-8.28,0-16.55,0-24.83,0
	c0.01-26.59-0.02-53.18,0.02-79.77c0.38-7.09-1.59-14.51-6.66-19.67c-8.69-8.93-21.69-11.71-33.69-12.34
	c-15.21-0.3-31.5-1.03-45.2,6.73c-8.05,4.33-13.83,12.91-13.71,22.21c-0.06,27.61,0,55.23-0.02,82.84c-8.37,0-16.72,0-25.08,0
	c0-43.03,0-86.07,0-129.1c8.27-0.01,16.54,0.01,24.81-0.01C-328.26,24.74-328.26,26.79-328.24,28.84z"/>
<g>
	<g>
		<path fill="#005DB2" d="M476.106,8.486c8.27,0.01,16.55-0.02,24.82,0.02c-0.03,22.67,0.01,45.35-0.02,68.02
			c14.24-5.65,29.68-7.37,44.89-7.69c17.95-0.31,36.31,0.76,53.34,6.89c10.85,3.94,21.37,10.81,26.61,21.43
			c3.76,7.97,5.19,16.81,6.12,25.5c1.11,12.86,0.98,25.89-0.99,38.66c-1.47,8.67-3.57,17.72-9.45,24.55
			c-8.67,10.34-21.87,15.41-34.7,18.27c-17.75,3.75-36.08,4-54.11,2.61c-10.83-0.94-21.62-3.01-31.75-7
			c0.04,2.04,0.06,4.09,0.09,6.14c-8.28,0.14-16.57,0.04-24.85,0.07C476.116,140.136,476.116,74.306,476.106,8.486z M527.246,95.016
			c-5.22,0.74-10.61,1.72-15.18,4.52c-4.25,2.55-7.12,6.93-8.49,11.62c-3.31,11.38-2.64,23.35-2.64,35.06
			c0.19,6.07,0.85,12.16,2.39,18.05c1.31,5.02,4.23,9.83,8.79,12.5c5.27,3.11,11.46,4.11,17.44,4.88
			c14.33,1.46,28.78,1.28,43.12,0.15c6.16-0.62,12.45-1.21,18.23-3.57c4.66-1.92,8.47-5.74,10.33-10.44
			c2.07-5.27,2.74-10.96,3.32-16.55c0.93-10.73,0.81-21.59-0.75-32.26c-0.92-5.61-2.03-11.61-5.96-15.98
			c-4.01-4.64-10.18-6.51-16.05-7.35C563.726,93.286,545.356,92.916,527.246,95.016z"/>
	</g>
	<g>
		<path fill="#005DB2" d="M354.266,69.936c18.47-1.87,37.28-1.73,55.57,1.7c12.45,2.52,25.15,6.94,34.35,16.05
			c5.38,5.24,8.59,12.27,10.44,19.46c3.1,11.72,3.61,23.95,3.36,36.01c-0.39,11.55-1.63,23.31-6.04,34.09
			c-4.36,10.47-13.92,17.78-24.15,22.03c-15.79,6.56-33.13,8.04-50.05,8.23c-17.41-0.02-35.22-1.35-51.56-7.8
			c-10.7-4.24-20.87-11.68-25.33-22.64c-5.05-12.65-5.73-26.51-5.77-39.98c0.16-13.02,0.97-26.43,6.15-38.55
			c3.74-8.66,11.17-15.21,19.46-19.43C331.106,73.766,342.726,71.296,354.266,69.936z M351.336,94.926
			c-7.24,0.84-15.24,1.78-20.68,7.16c-4.87,4.69-6.03,11.68-6.98,18.07c-1.54,11.74-1.54,23.69-0.09,35.43
			c0.93,6.12,1.87,12.73,6.09,17.56c3.7,4.38,9.39,6.31,14.87,7.3c9.62,1.71,19.44,1.99,29.2,2.23c12.65-0.09,25.48-0.16,37.89-2.94
			c6.94-1.48,13.26-6.35,15.35-13.29c3.23-10.77,3.51-22.18,3.3-33.34c-0.45-8.54-0.93-17.34-4.13-25.36
			c-3.01-7.15-10.59-10.94-17.93-11.92C389.406,93.096,370.246,93.096,351.336,94.926z"/>
	</g>
	<path fill="#005DB2" d="M47.686,72.186c9.86-1.98,19.99-2.07,30.01-2.13c14.04,0.11,28.18,0.47,42.01,3.11
		c10.04,1.79,19.02,7.78,25.16,15.83c3.8-5.45,8.81-10.16,14.95-12.82c11.02-4.63,23.13-5.53,34.95-5.97
		c12.27-0.3,24.58-0.23,36.8,1.1c10.86,1.32,22.15,4.06,30.69,11.3c7.44,6.03,11.9,15.12,13.4,24.47
		c1.42,8.94,1.26,18.03,1.38,27.06c0.04,23.85,0,47.7,0.02,71.55c-8.28,0.01-16.56,0-24.84,0.01c0-27.51,0.03-55.02-0.01-82.53
		c0.15-8.45-4.47-16.53-11.53-21.07c-11.39-7.55-25.6-8.55-38.89-8.32c-12.78-0.21-26.39,0.9-37.37,8.07
		c-7.18,4.54-11.86,12.76-11.69,21.31c-0.05,27.51,0.02,55.03-0.03,82.54c-8.27-0.02-16.54,0-24.81,0
		c-0.01-27.17-0.01-54.34,0-81.51c0.68-11.14-7.08-21.1-17.1-25.19c-10.34-4.7-21.91-5.41-33.11-5.22
		c-10.89-0.19-22.12,0.61-32.18,5.13c-6.53,2.92-12.51,7.82-15.24,14.59c-1.72,3.99-1.97,8.4-1.91,12.7c0.04,26.5,0,53,0.01,79.5
		c-8.23-0.12-16.48,0.22-24.71-0.16c-0.23-42.97-0.02-85.95-0.1-128.93c8.27-0.04,16.54,0,24.82-0.02c-0.01,2.13-0.01,4.27-0.02,6.4
		C33.946,78.146,40.256,73.586,47.686,72.186z"/>
	<path fill="#005DB2" d="M650.066,205.696c0-45.31,0-90.61,0-135.91c8.37,0.01,16.74-0.01,25.12,0.01
		c-0.01,7.91,0.02,15.82-0.02,23.74c-0.04,37.38-0.02,74.76-0.01,112.14C666.786,205.706,658.426,205.676,650.066,205.696z"/>
	<path fill="#FF2E17" d="M729.686,12.236c19.17-4.53,39.01-3.68,58.56-3.74c-7.47,7.23-14.97,14.43-22.44,21.65
		c-11.31,0.51-24.59-1.01-33.49,7.51c-8.11,8.54-6.58,21.3-6.75,32.12c19.33,0.03,38.65,0,57.98,0.02
		c-7.82,7.94-15.67,15.86-23.53,23.77c-11.74-0.02-23.49,0-35.23-0.02c0.08,37.38,0.18,74.76,0.27,112.14
		c-8.36,0.01-16.72,0-25.08,0.01c0-37.38,0-74.76,0-112.14c-8.27-0.02-16.54,0.03-24.81-0.02c0.04-7.92,0.01-15.83,0.02-23.74
		c8.26-0.02,16.52,0,24.79-0.02c0.21-8.58,0.38-17.19,1.21-25.74c0.5-5.18,1.7-10.41,4.39-14.91
		C710.886,20.496,719.896,14.556,729.686,12.236z"/>
	<path fill="#FF2E17" d="M650.066,27.556c8.36,0,16.72-0.01,25.08,0.01c0,8.41,0,16.83,0,25.25c-8.36,0.01-16.72,0-25.08,0.01
		C650.066,44.396,650.066,35.976,650.066,27.556z"/>
	<g>
		<path fill="#FF2E17" d="M826.256,69.976c19.79-2,40.03-1.85,59.52,2.45c12.42,2.92,25.12,8.09,33.37,18.25
			c5.99,7.44,8.29,17.04,9.79,26.28c1.92,13.92,1.91,28.12,0.05,42.05c-1.65,10.94-4.66,22.56-13.15,30.28
			c-12.2,11.32-29.21,15.21-45.28,17.11c-20.1,1.91-40.67,1.72-60.4-2.98c-12.08-3.05-24.36-8.33-32.27-18.33
			c-5.68-7.05-7.57-16.18-9-24.9c-1.99-13.95-2.02-28.19-0.28-42.17c1.52-10.92,4.24-22.58,12.58-30.44
			C793.206,76.046,810.206,71.986,826.256,69.976z M823.316,94.966c-7,0.81-14.66,1.76-20.03,6.8c-5.1,4.67-6.36,11.82-7.32,18.34
			c-1.57,11.97-1.57,24.16,0,36.13c0.94,6.29,2.13,13.13,6.83,17.81c5.25,5.29,13.02,6.39,20.07,7.3
			c16.26,1.71,32.69,1.74,48.97,0.32c7.09-0.79,14.63-1.52,20.66-5.69c4.91-3.32,7.14-9.21,8.27-14.8
			c2.02-10.54,2.15-21.35,1.66-32.04c-0.55-7.46-1.06-15.19-4.26-22.07c-2.58-5.74-8.43-9.22-14.38-10.57
			c-7.9-1.81-16.05-2.13-24.11-2.57C847.556,93.206,835.396,93.856,823.316,94.966z"/>
	</g>
	<g>
		<path fill="#FF2E17" d="M1142.966,77.366c15.65-6.74,32.95-8.34,49.82-8.59c17.98-0.05,36.45,1.25,53.26,8.13
			c10.9,4.44,21.09,12.41,25.16,23.8c5.2,14.98,5.65,31.12,5.06,46.82c-44.95,0.53-89.91,0.14-134.86,0.26
			c0.82,8.77,1.18,18.55,7.07,25.64c6.42,6.81,16.42,7.45,25.16,8.39c15.35,1.23,30.82,1.18,46.15-0.33
			c5.3-0.65,10.74-1.3,15.66-3.55c2.65-1.19,4.62-3.39,7.02-4.98c9.89-0.25,19.8-0.04,29.7-0.08c-2.92,10.88-11.48,19.38-21.37,24.3
			c-15.14,7.62-32.35,9.63-49.08,10.23c-16.5,0.39-33.26-0.43-49.2-5.03c-12.32-3.59-24.82-10.17-31.26-21.77
			c-5.63-10.89-7.02-23.41-7.63-35.49c-0.43-15.15,0.13-30.78,5.65-45.08C1123.306,89.376,1132.736,81.766,1142.966,77.366z
			 M1150.546,100.916c-6.96,5.59-7.71,15.2-8.85,23.4c35.53,0,71.07,0,106.61,0c-1.11-6.85-1.36-14.39-5.62-20.19
			c-4.11-5.65-11.2-7.76-17.82-8.61c-15.64-1.99-31.49-2.38-47.21-1.23C1168.446,95.156,1158.256,95.086,1150.546,100.916z"/>
	</g>
	<path fill="#FF2E17" d="M973.476,82.996c9.44-9.03,23-10.88,35.44-12.07c15.92-1,31.99-0.92,47.82,1.21
		c13.08,1.79,26.57,7.61,33.76,19.21c6.92,10.56,6.8,23.67,7.23,35.81c0.2,26.27,0.04,52.54,0.09,78.8c-8.28,0-16.55,0-24.83,0
		c0.01-26.59-0.02-53.18,0.02-79.77c0.38-7.09-1.59-14.51-6.66-19.67c-8.69-8.93-21.69-11.71-33.69-12.34
		c-15.21-0.3-31.5-1.03-45.2,6.73c-8.05,4.33-13.83,12.91-13.71,22.21c-0.06,27.61,0,55.23-0.02,82.84c-8.37,0-16.72,0-25.08,0
		c0-43.03,0-86.07,0-129.1c8.27-0.01,16.54,0.01,24.81-0.01C973.456,78.896,973.456,80.946,973.476,82.996z"/>
</g>
</svg>
